<svg aria-hidden="true" style="width:0;height:0;position:absolute;overflow:hidden" xmlns="http://www.w3.org/2000/svg"><defs><symbol id="icon-archive" viewBox="0 0 32 32"><path d="M31.182 3.964 28.711.977a2.582 2.582 0 0 0-2.044-.978H5.334a2.64 2.64 0 0 0-2.062.978L.819 3.964a3.477 3.477 0 0 0-.818 2.258v22.222C.001 30.4 1.601 32 3.557 32h24.889c1.956 0 3.556-1.6 3.556-3.556V6.222c0-.853-.302-1.653-.818-2.258zM15.378 25.156 6.222 16h6.222v-3.556h7.111V16h6.222l-9.156 9.156a.89.89 0 0 1-1.244 0zM3.769 3.556l1.44-1.778h21.333l1.671 1.778H3.769z"/></symbol><symbol id="icon-buy" viewBox="0 0 32 32"><path d="M30.79 6.44a.998.998 0 0 0-.79-.39H7.13L5.945 2.575A1.001 1.001 0 0 0 5 1.895H2a1 1 0 0 0 0 2h2.285L10.86 23.22c.139.396.509.675.945.675H26a1 1 0 0 0 0-2H12.5l-.73-2.155h15.234a1 1 0 0 0 .964-.733L27.97 19l3-11.69a.998.998 0 0 0-.181-.872l.002.002zm-4.565 11.3H11.11l-3.3-9.69h20.9zM15 24.745c-3.54.11-3.54 5.245 0 5.36 3.54-.105 3.54-5.25 0-5.36zm0 3.36a.68.68 0 1 1 0-1.36.68.68 0 1 1 0 1.36zm8.705-3.36c-3.54.11-3.54 5.245 0 5.36 3.54-.105 3.54-5.25 0-5.36zm0 3.36a.68.68 0 1 1 0-1.36.68.68 0 1 1 0 1.36z"/></symbol><symbol id="icon-delete" viewBox="0 0 32 32"><path d="M5.333 28.444C5.333 30.4 6.933 32 8.889 32h14.222c1.956 0 3.556-1.6 3.556-3.556V10.666c0-1.956-1.6-3.556-3.556-3.556H8.889a3.566 3.566 0 0 0-3.556 3.556v17.778zM26.667 1.778h-4.444L20.961.516A1.793 1.793 0 0 0 19.717 0h-7.431c-.462 0-.924.196-1.244.516L9.78 1.778H5.336c-.978 0-1.778.8-1.778 1.778s.8 1.778 1.778 1.778h21.333c.978 0 1.778-.8 1.778-1.778s-.8-1.778-1.778-1.778z"/></symbol><symbol id="icon-edit" viewBox="0 0 32 32"><path d="M0 25.707v5.404A.88.88 0 0 0 .889 32h5.404a.833.833 0 0 0 .622-.267l19.413-19.396-6.667-6.667L.265 25.066a.872.872 0 0 0-.267.64zM31.484 7.182a1.767 1.767 0 0 0 0-2.506l-4.16-4.16a1.767 1.767 0 0 0-2.506 0l-3.253 3.253 6.667 6.667 3.253-3.253z"/></symbol><symbol id="icon-lamp" viewBox="0 0 32 32"><path d="M16 5.63a.75.75 0 0 0 .75-.75V2.5a.75.75 0 0 0-1.5 0v2.38c0 .414.336.75.75.75zm7.29 3.02a.755.755 0 0 0 .53-.22l1.68-1.685a.746.746 0 0 0 0-1.06.753.753 0 0 0-1.06 0L22.76 7.37a.746.746 0 0 0 0 1.06c.141.14.331.22.53.22zm5.4 5.79h-2.38a.75.75 0 0 0 0 1.5h2.38a.75.75 0 0 0 0-1.5zm-4.87 7.51a.751.751 0 1 0-1.061 1.049l.001.001 1.68 1.68a.764.764 0 0 0 .53.22.75.75 0 0 0 .53-1.27l-1.68-1.68zm-15.64 0L6.5 23.63a.75.75 0 0 0 .53 1.28.764.764 0 0 0 .53-.22L9.24 23a.75.75 0 1 0-1.059-1.061v.01zm-2.49-7.51H3.31a.75.75 0 0 0 0 1.5h2.38a.75.75 0 0 0 0-1.5zm2.49-6.01a.749.749 0 0 0 1.222-.238l.002-.005a.746.746 0 0 0-.164-.817L7.56 5.685a.755.755 0 0 0-1.222.238l-.002.005a.746.746 0 0 0 .164.817L8.18 8.43zm16.05 6.07a8.26 8.26 0 1 0-13.636 6.931l.01.009a5.373 5.373 0 0 1 1.895 4.058v.352c0 .414.336.75.75.75h.38v1.275a2.37 2.37 0 1 0 4.74 0v-1.27h.38a.75.75 0 0 0 .75-.75V25.5a5.49 5.49 0 0 1 1.932-4.099l.008-.006a8.19 8.19 0 0 0 2.787-6.927l.002.031zm-7.36 13.38a.87.87 0 0 1-1.74 0v-1.275h1.74v1.275zm3.585-7.61a7.023 7.023 0 0 0-2.454 4.811l-.001.024h-4a6.895 6.895 0 0 0-2.396-4.792l-.009-.008a6.76 6.76 0 1 1 8.878-.041l-.008.006h-.01z"/></symbol><symbol id="icon-mind" viewBox="0 0 32 32"><path d="M28.54 18.055a9.465 9.465 0 0 1-2.676-5.638l-.004-.042C25.73 6.24 20.07 1.075 13.935 1.5 4.13 1.895-.5 14.405 6.665 21.06c1.271 2.616 2.021 5.689 2.035 8.935v.008a.497.497 0 0 0 .497.497H20.872a.5.5 0 0 0 .492-.412v-.003l.415-2.395c.2-.895.745-1.065 1.69-1.295 1.105-.27 2.62-.64 2.405-3.32v-.002c0-.049.031-.091.074-.108h.001a1.192 1.192 0 0 0 .547-1.671l.003.006a1.187 1.187 0 0 0 .587-1.587l.003.007h.72a1 1 0 0 0 .729-1.666l.001.001zm-1.57.665a.925.925 0 0 0-.772 1.414l-.002-.004a.182.182 0 0 1 0 .216l-2.195.155h-.017a.5.5 0 0 0-.018 1h.001l1.675.255a.175.175 0 0 1-.073.275h-.001a1.137 1.137 0 0 0-.685 1.042v.029-.001c.37 3.605-3.34 1.135-4.08 4.385l-.35 2H9.698a21.064 21.064 0 0 0-2.336-9.223l.056.118a10.131 10.131 0 0 1-3.254-7.45c0-1.294.242-2.531.683-3.669l-.024.069c2.365-6.915 11.375-9.07 16.68-4.13a10.245 10.245 0 0 1 3.369 7.179l.001.021a10.277 10.277 0 0 0 2.97 6.32z"/><path d="m11.345 5.945.61.215a2.049 2.049 0 0 0 .047.619l-.003-.014c-.38.2-1.07.365-.82.95a.5.5 0 0 0 .673.233l-.003.001.585-.28c.132.153.279.287.442.4l.008.005c-.13.405-.5 1 .09 1.245a.5.5 0 0 0 .629-.316l.001-.004.215-.615a1.64 1.64 0 0 0 .616-.033l-.011.002.28.58a.501.501 0 1 0 .899-.438l-.279-.577c.156-.131.29-.281.4-.447l.005-.008c.215.091.473.175.74.238l.035.007h.009a.5.5 0 0 0 .159-.974l-.004-.001-.61-.215a1.932 1.932 0 0 0-.037-.618l.002.013c.38-.195 1.07-.365.82-.945a.5.5 0 0 0-.673-.233l.003-.001-.585.28a2.176 2.176 0 0 0-.442-.4l-.008-.005c.13-.405.5-1-.095-1.245a.5.5 0 0 0-.634.301l-.001.003-.215.61a2.226 2.226 0 0 0-.619.037l.014-.002c-.195-.38-.365-1.065-.945-.815a.5.5 0 0 0-.233.668l-.001-.003.28.585c-.157.13-.291.28-.4.447l-.005.008-.61-.205a.5.5 0 0 0-.333.943l.004.001zM14 5.28a1.075 1.075 0 0 1 .998 1.433L15 6.705a1.07 1.07 0 1 1-1.009-1.425h.01H14zm4.585 6.04h-.5a1.6 1.6 0 0 0-.149-.368l.004.008.335-.33a.5.5 0 1 0-.694-.716v.001l-.34.33a1.844 1.844 0 0 0-.346-.151l-.014-.004v-.47a.5.5 0 0 0-1 0v.47c-.138.04-.257.089-.37.15l.01-.005-.33-.335a.5.5 0 0 0-.689.687l-.001-.002.33.34c-.059.102-.11.219-.147.343l-.003.012h-.5a.5.5 0 0 0 0 1h.475c.038.139.088.261.15.374l-.005-.009-.335.325a.5.5 0 1 0 .694.716v-.001l.34-.33c.103.059.222.111.346.151l.014.004V14a.5.5 0 0 0 1 0v-.5c.138-.04.257-.089.37-.15l-.01.005.33.335a.502.502 0 0 0 .73-.69l-.33-.335c.06-.103.111-.223.147-.349l.003-.011h.5a.5.5 0 0 0-.012-.984h-.003zm-1.635 1.045a.796.796 0 0 1-1.116-1.135.796.796 0 0 1 1.115 1.135zm-3.68.56-1.07-.38a2.82 2.82 0 0 0-.074-1.205l.005.02 1-.5a.5.5 0 0 0 .233-.668l.001.003a.5.5 0 0 0-.673-.233l.003-.001-1.025.5a2.77 2.77 0 0 0-.872-.788l-.013-.007.375-1.07a.5.5 0 0 0-.943-.339l-.001.004-.375 1.075a2.721 2.721 0 0 0-1.209.075l.019-.005-.5-1a.501.501 0 0 0-.965.183c0 .091.024.176.067.25l-.001-.002.5 1.03a2.757 2.757 0 0 0-.743.846l-.007.014-1.075-.375a.5.5 0 1 0-.334.94l.003.001 1.07.38a2.877 2.877 0 0 0 .075 1.211l-.005-.02-1 .5a.501.501 0 1 0 .438.899l-.003.001 1.025-.5c.236.325.533.59.876.783l.014.007-.38 1.075a.5.5 0 0 0 .301.634l.003.001a.502.502 0 0 0 .639-.302l.001-.004.35-1.075a2.65 2.65 0 0 0 1.209-.07l-.019.005.5 1.025a.5.5 0 0 0 .673.229l-.003.001a.5.5 0 0 0 .233-.668l.001.003-.5-1c.316-.243.575-.545.763-.89l.007-.015c.319.13.732.268 1.153.385l.086.02.028.001a.5.5 0 0 0 .141-.98l-.004-.001zm-4.445.89a1.81 1.81 0 0 1 1.213-3.411l-.013-.004c2.235.845 1.07 4.155-1.2 3.415z"/></symbol><symbol id="icon-quote" viewBox="0 0 32 32"><path d="M6.34 26c1.02 0 1.96-.58 2.4-1.48l2.84-5.68c.28-.56.42-1.16.42-1.78V8c0-1.1-.9-2-2-2H2C.9 6 0 6.9 0 8v8c0 1.1.9 2 2 2h4l-2.06 4.12c-.9 1.78.4 3.88 2.4 3.88zm20 0c1.02 0 1.96-.58 2.4-1.48l2.84-5.68c.28-.56.42-1.16.42-1.78V8c0-1.1-.9-2-2-2h-8c-1.1 0-2 .9-2 2v8c0 1.1.9 2 2 2h4l-2.06 4.12c-.9 1.78.4 3.88 2.4 3.88z"/></symbol><symbol id="icon-close" viewBox="0 0 32 32"><path d="M23.734 10.304 22.23 8.8l-5.963 5.962L10.305 8.8l-1.504 1.504 5.962 5.962-5.962 5.963 1.504 1.504 5.962-5.963 5.963 5.963 1.504-1.504-5.963-5.963 5.963-5.962z"/></symbol></defs></svg>