<svg width="24" height="24" fill="none" xmlns="http://www.w3.org/2000/svg"><path fill-rule="evenodd" clip-rule="evenodd" d="M1.293 1.293a1 1 0 0 1 1.414 0l1 1a1 1 0 0 1-1.414 1.414l-1-1a1 1 0 0 1 0-1.414ZM12 3a6 6 0 0 0-4.561 9.898c.743.869 1.567 1.909 2.074 3.102h4.974c.507-1.193 1.331-2.233 2.074-3.102A6 6 0 0 0 12 3Zm2.007 15H9.993c.005.09.007.18.007.272V19a2 2 0 1 0 4 0v-.728c0-.091.002-.182.007-.272ZM4 9a8 8 0 1 1 14.081 5.198c-.88 1.03-1.625 2.032-1.933 3.083-.096.33-.148.658-.148.99V19a4 4 0 0 1-8 0v-.728c0-.333-.052-.662-.148-.99-.308-1.052-1.052-2.054-1.933-3.084A7.973 7.973 0 0 1 4 9Zm18.707-7.707a1 1 0 0 1 0 1.414l-1 1a1 1 0 1 1-1.414-1.414l1-1a1 1 0 0 1 1.414 0Zm-19 13a1 1 0 0 1 0 1.414l-1 1a1 1 0 0 1-1.414-1.414l1-1a1 1 0 0 1 1.414 0Zm16.586 0a1 1 0 0 1 1.414 0l1 1a1 1 0 0 1-1.414 1.414l-1-1a1 1 0 0 1 0-1.414Z" fill="#293644"/></svg>